<mxfile host="app.diagrams.net" modified="2023-10-13T02:26:53.616Z" agent="Mozilla/5.0 (Macintosh; Intel Mac OS X 10_15_7) AppleWebKit/537.36 (KHTML, like Gecko) Chrome/117.0.0.0 Safari/537.36 Edg/117.0.2045.40" etag="wOHamQJc_cARTmFocQX5" version="21.3.4" type="github">
  <diagram name="第 1 页" id="E1xqAoynhQZB6YTEvSdn">
    <mxGraphModel dx="1026" dy="661" grid="1" gridSize="10" guides="1" tooltips="1" connect="1" arrows="1" fold="1" page="1" pageScale="1" pageWidth="827" pageHeight="1169" math="0" shadow="0">
      <root>
        <mxCell id="0" />
        <mxCell id="1" parent="0" />
      </root>
    </mxGraphModel>
  </diagram>
</mxfile>
